<svg id="visual" viewBox="0 0 960 540" width="960" height="540" xmlns="http://www.w3.org/2000/svg" xmlns:xlink="http://www.w3.org/1999/xlink" version="1.1"><g transform="translate(-12.789061847644774 -62.80344088774464)"><path d="M177 -236.4C248.1 -191.9 337.6 -165.3 353.9 -115C370.3 -64.7 313.5 9.4 288.8 96.4C264.1 183.4 271.3 283.5 228.5 359.6C185.7 435.6 92.9 487.8 16.3 465.4C-60.3 443.1 -120.7 346.1 -177.1 274.5C-233.6 202.8 -286.1 156.4 -312.2 96.6C-338.3 36.8 -337.9 -36.5 -309 -92.7C-280.1 -148.9 -222.7 -188.1 -166.4 -237.5C-110.1 -286.9 -55.1 -346.4 -1.1 -345C52.9 -343.5 105.8 -281 177 -236.4" fill="#0C0C0C"></path></g></svg>